<?xml version="1.0" encoding="utf-8"?>
<!-- Generator: Adobe Illustrator 16.0.0, SVG Export Plug-In . SVG Version: 6.00 Build 0)  -->
<!DOCTYPE svg PUBLIC "-//W3C//DTD SVG 1.1//EN" "http://www.w3.org/Graphics/SVG/1.1/DTD/svg11.dtd">
<svg version="1.1" id="Layer_1" xmlns="http://www.w3.org/2000/svg" xmlns:xlink="http://www.w3.org/1999/xlink" x="0px" y="0px"
	 width="925px" height="400px" viewBox="0 0 925 400" enable-background="new 0 0 925 400" xml:space="preserve">
<g>
	<path opacity="0.5" fill="#B2D2EE" d="M2.5,4.374h33.668c11.347,0,20.658,1.018,27.935,3.052c7.275,2.036,13.01,5.227,17.205,9.575
		c4.192,4.347,7.105,9.927,8.74,16.741c1.634,6.814,2.451,15,2.451,24.559v54.572c0,6.168-0.214,11.872-0.647,17.113
		c-0.431,5.241-1.326,10.005-2.682,14.291c-1.357,4.287-3.283,8.077-5.781,11.376c-2.497,3.3-5.812,6.074-9.943,8.325
		c-4.132,2.251-9.188,3.962-15.169,5.133c-5.982,1.173-13.104,1.759-21.368,1.759H2.5V4.374z M36.908,147.281
		c4.008,0,7.4-0.091,10.174-0.276c2.775-0.186,5.042-0.786,6.798-1.803c1.759-1.019,3.022-2.592,3.794-4.718
		c0.769-2.128,1.155-5.165,1.155-9.112V41.744c0-2.715-0.386-4.965-1.155-6.754c-0.772-1.787-2.02-3.19-3.749-4.208
		c-1.726-1.019-3.93-1.726-6.612-2.129c-2.682-0.4-5.966-0.599-9.852-0.599h-1.294v119.228H36.908z"/>
	<path opacity="0.5" fill="#B2D2EE" d="M101.471,4.374H138.1c8.14,0,15.479,0.787,22.015,2.359c6.537,1.572,12.118,4.1,16.741,7.583
		c4.625,3.484,8.171,8.002,10.639,13.551c2.466,5.549,3.699,12.333,3.699,20.349c0,3.762-0.201,7.646-0.601,11.656
		c-0.401,4.006-1.371,7.892-2.914,11.654c-1.541,3.763-3.823,7.275-6.844,10.546c-3.022,3.268-7.124,6.042-12.302,8.323
		c9.988,31.758,18.684,58.583,26.083,80.474h-34.872l-19.053-76.68h-5.551v76.68h-33.669V4.374z M144.76,73.656
		c1.789,0,3.345-0.403,4.672-1.204c1.324-0.802,2.465-1.85,3.422-3.145c0.956-1.297,1.757-2.761,2.405-4.393
		c0.646-1.634,1.141-3.301,1.479-4.996c0.34-1.696,0.586-3.331,0.742-4.903c0.153-1.573,0.23-2.944,0.23-4.116
		c0-1.726-0.139-3.838-0.417-6.335c-0.278-2.499-0.833-4.888-1.664-7.168c-0.833-2.283-1.99-4.239-3.469-5.875
		c-1.48-1.634-3.423-2.452-5.827-2.452H135.14v44.587H144.76z"/>
	<path opacity="0.5" fill="#B2D2EE" d="M197.991,4.374h33.668v113.124c0,4.318,0.091,8.341,0.277,12.072
		c0.185,3.73,0.74,6.968,1.666,9.713c0.924,2.742,2.374,4.901,4.346,6.473c1.974,1.573,4.779,2.359,8.418,2.359
		c3.946,0,7.045-0.924,9.296-2.774c2.25-1.851,3.808-5.118,4.67-9.805c0.741-4.256,1.11-13.444,1.11-27.565V4.374h33.67v104.616
		c0,5.363-0.186,10.697-0.555,16.001c-0.37,5.304-1.141,10.359-2.312,15.17c-1.172,4.81-2.837,9.295-4.996,13.458
		s-5.04,7.755-8.648,10.775c-3.608,3.021-8.033,5.396-13.273,7.123c-5.241,1.728-11.501,2.59-18.777,2.59
		c-7.029,0-13.119-0.816-18.268-2.45c-5.149-1.635-9.528-3.901-13.135-6.799c-3.608-2.898-6.521-6.367-8.741-10.406
		c-2.22-4.04-3.961-8.462-5.226-13.274c-1.264-4.81-2.113-9.942-2.544-15.4c-0.433-5.458-0.646-11.054-0.646-16.787V4.374z"/>
	<path opacity="0.5" fill="#B2D2EE" d="M304.732,4.374h40.237c7.213,0,13.443,1.018,18.684,3.052
		c5.241,2.036,9.558,5.042,12.951,9.019c3.391,3.977,5.888,8.911,7.492,14.8c1.602,5.89,2.405,12.656,2.405,20.304
		c0,9.558-1.096,17.435-3.285,23.633c-2.188,6.196-5.349,11.1-9.48,14.707c-4.131,3.606-9.158,6.119-15.078,7.538
		s-12.609,2.158-20.072,2.22h-0.184v71.224h-33.669V4.374z M339.789,75.873c3.639,0,6.459-0.509,8.463-1.524
		c2.003-1.018,3.468-2.544,4.393-4.579c0.925-2.035,1.48-4.625,1.666-7.77c0.185-3.146,0.278-6.845,0.278-11.101
		c0-3.76-0.139-7.06-0.417-9.897c-0.277-2.835-0.895-5.195-1.85-7.076c-0.957-1.879-2.39-3.285-4.302-4.209
		c-1.911-0.924-4.501-1.386-7.77-1.386h-1.85v47.542H339.789z"/>
	<path opacity="0.5" fill="#B2D2EE" d="M412.713,4.374h29.785l35.889,166.496H445.18l-6.846-35.612h-21.735l-6.475,35.612H376.73
		L412.713,4.374z M436.115,114.539l-8.417-61.788l-8.787,61.788H436.115z"/>
	<path opacity="0.5" fill="#B2D2EE" d="M483.943,4.374h33.669v143.37h33.114v23.126h-66.783V4.374z"/>
	<path opacity="0.5" fill="#B2D2EE" d="M588.777,4.374h29.783l35.889,166.496h-33.206l-6.845-35.612h-21.737l-6.475,35.612h-33.392
		L588.777,4.374z M612.178,114.539l-8.416-61.788l-8.789,61.788H612.178z"/>
	<path opacity="0.5" fill="#B2D2EE" d="M667.255,29.533h-24.418V4.374h82.044v25.159h-23.957v141.336h-33.669V29.533z"/>
	<path opacity="0.5" fill="#B2D2EE" d="M727.535,60.148c0-39.342,16.219-59.013,48.653-59.013c32.498,0,48.748,19.67,48.748,59.013
		v55.13c0,8.017-0.819,15.585-2.454,22.707c-1.632,7.124-4.346,13.366-8.137,18.731c-3.795,5.367-8.804,9.605-15.033,12.719
		c-6.228,3.114-13.938,4.671-23.124,4.671c-9.188,0-16.88-1.51-23.077-4.532c-6.198-3.022-11.192-7.153-14.985-12.396
		c-3.792-5.24-6.506-11.376-8.141-18.406c-1.633-7.03-2.45-14.585-2.45-22.662V60.148z M791.267,51.732
		c0-16.403-5.026-24.605-15.078-24.605c-3.082,0-5.597,0.757-7.538,2.268c-1.942,1.51-3.468,3.438-4.579,5.781
		c-1.11,2.343-1.864,4.979-2.266,7.908c-0.4,2.929-0.6,5.811-0.6,8.648v71.963c0,16.341,4.992,24.512,14.982,24.512
		c10.052,0,15.078-8.171,15.078-24.512V51.732z"/>
	<path opacity="0.5" fill="#B2D2EE" d="M833.794,4.374h24.235l36.536,87.041V4.374H922.5v166.496h-23.31l-36.444-92.405v92.405
		h-28.952V4.374z"/>
	<g opacity="0.3">
		<g>
			<path d="M129.193,324.52h12.837l15.469,71.767h-14.311l-2.951-15.352h-9.372l-2.791,15.352h-14.392L129.193,324.52z
				 M139.28,372.004l-3.628-26.633l-3.789,26.633H139.28z"/>
			<path d="M157.74,324.52h14.513v48.761c0,1.859,0.04,3.596,0.119,5.203c0.08,1.607,0.319,3.004,0.72,4.188
				c0.394,1.183,1.021,2.113,1.872,2.789c0.85,0.679,2.059,1.016,3.628,1.016c1.699,0,3.036-0.397,4.005-1.194
				c0.972-0.797,1.642-2.206,2.014-4.228c0.318-1.833,0.478-5.793,0.478-11.881V324.52h14.512v45.093
				c0,2.312-0.079,4.611-0.239,6.896c-0.159,2.288-0.492,4.465-0.996,6.54c-0.507,2.072-1.223,4.006-2.153,5.803
				c-0.929,1.792-2.173,3.339-3.727,4.642c-1.555,1.302-3.462,2.325-5.723,3.071c-2.261,0.743-4.958,1.116-8.093,1.116
				c-3.03,0-5.656-0.354-7.875-1.057c-2.22-0.706-4.107-1.681-5.661-2.931c-1.555-1.25-2.812-2.746-3.768-4.485
				c-0.958-1.742-1.709-3.647-2.252-5.722c-0.545-2.073-0.914-4.286-1.098-6.639c-0.185-2.354-0.277-4.765-0.277-7.235V324.52z"/>
			<path d="M203.125,348.561c0-16.956,7.058-25.436,21.171-25.436c3.774,0,6.97,0.598,9.589,1.791
				c2.619,1.199,4.738,2.857,6.361,4.985c1.621,2.127,2.79,4.653,3.506,7.575c0.717,2.925,1.079,6.115,1.079,9.571v4.224h-13.875
				v-5.021c0-1.517-0.074-2.978-0.22-4.387c-0.147-1.409-0.451-2.659-0.918-3.747c-0.463-1.092-1.137-1.973-2.014-2.651
				c-0.875-0.679-2.046-1.057-3.508-1.139c-4.439,0-6.658,3.535-6.658,10.608v30.979c0,7.042,2.219,10.562,6.658,10.562
				c4.413,0,6.62-3.653,6.62-10.964v-5.74h-8.214v-10.405h22.725v36.917h-9.967l-1.834-5.021c-0.608,0.955-1.368,1.826-2.271,2.609
				c-0.905,0.785-1.895,1.454-2.969,2.014c-1.08,0.558-2.207,0.996-3.391,1.315c-1.183,0.319-2.373,0.479-3.569,0.479
				c-2.258,0-4.272-0.333-6.041-0.997c-1.767-0.665-3.327-1.568-4.684-2.711c-1.356-1.146-2.513-2.492-3.467-4.048
				c-0.957-1.555-1.742-3.208-2.354-4.964c-0.612-1.754-1.056-3.581-1.334-5.482c-0.281-1.9-0.421-3.781-0.421-5.641V348.561z"/>
			<path d="M249.04,324.52h14.512v48.761c0,1.858,0.04,3.596,0.12,5.202c0.079,1.608,0.319,3.003,0.717,4.188
				c0.401,1.183,1.022,2.113,1.874,2.789c0.85,0.68,2.06,1.016,3.628,1.016c1.701,0,3.037-0.397,4.006-1.194
				c0.97-0.799,1.641-2.206,2.014-4.228c0.319-1.832,0.478-5.794,0.478-11.881V324.52h14.513v45.093
				c0,2.311-0.079,4.611-0.238,6.896c-0.16,2.286-0.494,4.465-1,6.54c-0.505,2.072-1.221,4.006-2.152,5.801
				c-0.928,1.794-2.169,3.34-3.726,4.644c-1.556,1.302-3.463,2.325-5.723,3.069c-2.257,0.744-4.958,1.118-8.094,1.118
				c-3.031,0-5.655-0.354-7.873-1.057c-2.219-0.706-4.108-1.681-5.661-2.931c-1.555-1.25-2.81-2.746-3.77-4.485
				c-0.957-1.742-1.705-3.647-2.253-5.722c-0.542-2.073-0.909-4.287-1.096-6.639c-0.185-2.354-0.278-4.765-0.278-7.235V324.52z"/>
			<path d="M308.566,372.922c0,1.699,0.055,3.353,0.16,4.962c0.107,1.609,0.353,3.051,0.74,4.324
				c0.385,1.278,0.943,2.314,1.673,3.11c0.73,0.799,1.721,1.238,2.97,1.317c2.874,0,4.307-1.836,4.307-5.502
				c0-4.996-2.832-9.993-8.493-14.992l-4.504-3.827c-1.276-1.062-2.591-2.198-3.949-3.407c-1.354-1.21-2.59-2.605-3.705-4.187
				c-1.118-1.581-2.042-3.41-2.771-5.483c-0.732-2.072-1.098-4.504-1.098-7.295c0-2.896,0.492-5.517,1.473-7.854
				c0.985-2.34,2.36-4.325,4.128-5.96s3.893-2.891,6.381-3.768c2.484-0.88,5.241-1.315,8.271-1.315c2.524,0,4.9,0.491,7.117,1.475
				c2.219,0.982,4.162,2.313,5.82,3.986c1.662,1.674,2.972,3.634,3.93,5.88c0.955,2.248,1.436,4.633,1.436,7.158l-0.044,1.714
				l-14.988,2.073c0-0.16,0.006-0.358,0.018-0.598c0.016-0.24,0.028-0.498,0.042-0.777c0.013-0.279,0.028-0.554,0.038-0.817
				c0.017-0.267,0.021-0.505,0.021-0.72c0-0.875-0.067-1.8-0.198-2.77c-0.134-0.971-0.367-1.859-0.7-2.671
				c-0.332-0.81-0.797-1.483-1.395-2.013c-0.596-0.531-1.36-0.799-2.291-0.799c-0.797,0-1.497,0.175-2.095,0.52
				c-0.598,0.346-1.096,0.809-1.495,1.395c-0.399,0.586-0.699,1.257-0.897,2.014c-0.197,0.758-0.3,1.549-0.3,2.373
				c0,1.195,0.134,2.292,0.398,3.289c0.267,0.996,0.665,1.946,1.198,2.85c0.532,0.902,1.177,1.769,1.933,2.592
				c0.757,0.822,1.629,1.649,2.612,2.472l5.302,4.546c1.914,1.673,3.663,3.389,5.244,5.145c1.583,1.752,2.942,3.614,4.087,5.579
				c1.142,1.967,2.028,4.074,2.65,6.321c0.624,2.243,0.938,4.697,0.938,7.354c0,2.498-0.487,4.798-1.455,6.897
				c-0.974,2.099-2.287,3.907-3.947,5.424c-1.663,1.515-3.618,2.695-5.862,3.546c-2.246,0.853-4.645,1.276-7.196,1.276
				c-3.375,0-6.3-0.598-8.77-1.794c-2.473-1.195-4.54-2.81-6.203-4.844c-1.659-2.033-2.914-4.373-3.766-7.016
				c-0.851-2.646-1.343-5.43-1.473-8.354L308.566,372.922z"/>
			<path d="M343.933,335.365h-10.526V324.52h35.366v10.846h-10.325v60.918h-14.515V335.365z"/>
		</g>
		<g>
			<path d="M128.605,220.553h-12.699v-18.49c1.767-1.023,3.5-1.896,5.197-2.618c1.698-0.721,3.315-1.534,4.85-2.441
				c1.537-0.906,2.989-2.034,4.362-3.385c1.373-1.35,2.616-3.161,3.733-5.441h18.561v125.674h-24.004V220.553z"/>
			<path d="M184.025,274.005c-0.045,0.605-0.069,1.164-0.069,1.674c0,0.514,0,1.001,0,1.468c0,2.045,0.059,4.163,0.176,6.35
				c0.115,2.186,0.439,4.187,0.976,6.001c0.534,1.813,1.325,3.301,2.372,4.466c1.047,1.162,2.5,1.743,4.362,1.743
				c5.768,0,9.256-4.442,10.466-13.328c0.186-1.21,0.303-2.931,0.35-5.164c0.046-2.231,0.07-5.023,0.07-8.372
				c0-1.536-0.058-3.351-0.174-5.441c-0.117-2.096-0.477-4.096-1.082-6.003c-0.604-1.909-1.546-3.523-2.827-4.851
				c-1.279-1.324-3.057-1.988-5.338-1.988c-1.115,0-2.187,0.28-3.209,0.837c-1.022,0.561-1.965,1.292-2.827,2.198
				c-0.859,0.907-1.639,1.942-2.337,3.104c-0.698,1.164-1.303,2.374-1.814,3.63h-20.585v-72.151h59.802v23.864h-37.193
				l-0.908,22.679c4.56-2.747,8.932-4.119,13.118-4.119c3.908,0,7.339,0.513,10.293,1.538c2.954,1.022,5.513,2.428,7.676,4.221
				c2.163,1.791,3.953,3.907,5.373,6.35c1.42,2.442,2.56,5.094,3.418,7.954c0.861,2.861,1.467,5.862,1.815,9.003
				c0.349,3.139,0.524,6.314,0.524,9.523c0,3.582-0.151,7.222-0.454,10.922c-0.303,3.696-0.896,7.29-1.781,10.779
				c-0.883,3.491-2.093,6.771-3.628,9.839c-1.535,3.071-3.547,5.77-6.036,8.095c-2.489,2.328-5.501,4.153-9.037,5.479
				c-3.535,1.325-7.721,1.987-12.561,1.987c-6.604,0-12.047-1.115-16.327-3.347c-4.282-2.235-7.653-5.27-10.119-9.108
				c-2.466-3.837-4.187-8.314-5.165-13.431c-0.976-5.117-1.464-10.585-1.464-16.399H184.025z"/>
			<path d="M232.493,250.341h29.099v15.56h-29.099V250.341z"/>
			<path d="M270.87,220.553h-12.701v-18.49c1.769-1.023,3.5-1.896,5.199-2.618c1.698-0.721,3.315-1.534,4.851-2.441
				c1.536-0.906,2.988-2.034,4.361-3.385c1.372-1.35,2.616-3.161,3.733-5.441h18.562v125.674H270.87V220.553z"/>
			<path d="M311.972,247.421c-6.14-6.329-9.211-15.282-9.211-26.868c0-5.351,0.688-10.176,2.059-14.479
				c1.374-4.302,3.42-7.955,6.141-10.955c2.723-3,6.082-5.314,10.083-6.941c4.001-1.629,8.653-2.443,13.957-2.443
				c5.304,0,9.942,0.814,13.921,2.443c3.977,1.627,7.315,3.965,10.013,7.013c2.699,3.044,4.723,6.708,6.072,10.989
				c1.349,4.28,2.022,9.071,2.022,14.374c0,11.679-3.046,20.633-9.141,26.868c2.232,1.812,4.047,3.802,5.443,5.965
				c1.396,2.162,2.501,4.489,3.315,6.977c0.814,2.49,1.371,5.129,1.673,7.922c0.302,2.789,0.454,5.697,0.454,8.722
				c0,5.815-0.592,11.117-1.778,15.909c-1.187,4.792-3.105,8.898-5.757,12.318c-2.65,3.418-6.129,6.07-10.432,7.953
				c-4.304,1.886-9.571,2.826-15.805,2.826c-22.516,0-33.774-13.003-33.774-39.007c0-3.304,0.151-6.384,0.454-9.245
				c0.303-2.86,0.861-5.513,1.675-7.957c0.813-2.441,1.906-4.687,3.279-6.731C308.008,251.023,309.786,249.142,311.972,247.421z
				 M324.881,278.402v3.209c0.048,1.442,0.175,3.011,0.385,4.709s0.661,3.294,1.361,4.781c0.696,1.489,1.708,2.733,3.035,3.733
				c1.326,0.998,3.104,1.5,5.338,1.5c2.325-0.094,4.163-0.651,5.514-1.676c1.347-1.023,2.359-2.348,3.035-3.977
				c0.673-1.629,1.094-3.5,1.254-5.615c0.164-2.119,0.247-4.34,0.247-6.665c0-13.772-3.352-20.656-10.049-20.656
				C328.254,257.746,324.881,264.63,324.881,278.402z M335,238.905c1.908,0,3.396-0.721,4.465-2.162
				c1.071-1.441,1.861-3.223,2.373-5.339c0.512-2.118,0.813-4.35,0.908-6.7c0.093-2.347,0.139-4.43,0.139-6.242
				c0-9.024-2.629-13.541-7.885-13.541c-1.814,0-3.245,0.49-4.292,1.469c-1.047,0.976-1.849,2.196-2.408,3.662
				c-0.558,1.464-0.919,3.035-1.081,4.711c-0.164,1.674-0.244,3.232-0.244,4.675c0,1.954,0.069,4.06,0.208,6.316
				c0.139,2.255,0.477,4.359,1.012,6.313c0.535,1.954,1.303,3.582,2.303,4.885c1,1.304,2.384,1.953,4.152,1.953H335z"/>
		</g>
		<g>
			<path d="M89.521,396.286l-35.73-24.961l-5.357-3.59c-1.293-0.874-2.68-1.701-4.161-2.479c-1.482-0.78-2.982-1.456-4.502-2.025
				c-1.519-0.569-3.039-1.016-4.559-1.34c-1.52-0.321-2.982-0.482-4.389-0.482c-1.1,0-2.297,0.143-3.588,0.428
				c-1.292,0.283-2.48,0.722-3.562,1.311c-1.083,0.588-1.984,1.358-2.708,2.308c-0.719,0.949-1.082,2.108-1.082,3.475
				c0,1.332,0.333,2.434,0.997,3.308c0.666,0.873,1.547,1.596,2.649,2.164c1.103,0.569,2.356,1.006,3.762,1.311
				c1.405,0.305,2.831,0.514,4.274,0.629c1.444,0.113,2.859,0.179,4.246,0.199c1.386,0.017,2.611,0.027,3.677,0.027h1.366v19.66
				h-6.438c-4.559,0-8.787-0.483-12.679-1.452c-3.896-0.97-7.268-2.535-10.118-4.702c-2.848-2.165-5.07-4.986-6.666-8.464
				c-1.596-3.474-2.395-7.703-2.395-12.68c0-4.329,0.665-8.186,1.995-11.566c1.33-3.382,3.22-6.231,5.671-8.549
				c2.45-2.316,5.414-4.085,8.89-5.301c3.475-1.214,7.378-1.822,11.709-1.822c3.497,0,6.926,0.438,10.287,1.311
				c3.362,0.873,6.829,2.222,10.401,4.046c3.571,1.822,7.322,4.149,11.257,6.98c3.932,2.832,8.233,6.203,12.907,10.117
				c2.771,2.316,5.136,4.254,7.093,5.812c1.958,1.556,3.506,2.773,4.645,3.647v-31.914h19.719v54.595H89.521z"/>
			<path d="M34.812,337.723c-4.444,0-8.625-0.532-12.538-1.597c-3.912-1.062-7.321-2.716-10.229-4.957
				c-2.906-2.241-5.204-5.101-6.895-8.576c-1.69-3.478-2.537-7.646-2.537-12.511c0-4.749,0.827-8.86,2.479-12.337
				c1.654-3.476,3.933-6.344,6.84-8.604c2.907-2.26,6.316-3.935,10.229-5.017c3.914-1.082,8.13-1.624,12.652-1.624H77.04
				c4.331,0,8.434,0.571,12.31,1.71c3.875,1.141,7.285,2.85,10.229,5.13c2.945,2.278,5.271,5.148,6.98,8.604
				c1.711,3.456,2.564,7.503,2.564,12.138c0,4.673-0.844,8.749-2.537,12.225c-1.689,3.478-3.988,6.354-6.893,8.634
				c-2.907,2.279-6.308,3.979-10.201,5.101c-3.895,1.121-8.046,1.682-12.453,1.682H34.812z M34.813,302.39
				c-9.841,0-14.761,2.563-14.761,7.692c0,1.216,0.246,2.251,0.742,3.105c0.492,0.856,1.14,1.567,1.938,2.139
				c0.796,0.569,1.708,1.017,2.735,1.339c1.024,0.322,2.09,0.559,3.19,0.712c1.103,0.152,2.185,0.248,3.25,0.286
				c1.063,0.036,2.032,0.056,2.906,0.056H77.04c1.216,0,2.669-0.074,4.36-0.227c1.69-0.151,3.305-0.495,4.844-1.026
				c1.54-0.533,2.841-1.301,3.903-2.31c1.063-1.006,1.595-2.364,1.595-4.074c0-1.632-0.502-2.963-1.51-3.988
				c-1.007-1.024-2.251-1.804-3.732-2.336c-1.482-0.534-3.079-0.893-4.786-1.084c-1.711-0.188-3.27-0.284-4.674-0.284H34.813z"/>
			<path d="M30.938,268.495v10.371H15.835c-0.836-1.443-1.548-2.859-2.136-4.246c-0.589-1.387-1.253-2.706-1.996-3.96
				c-0.741-1.254-1.661-2.441-2.763-3.562c-1.101-1.12-2.583-2.136-4.444-3.048v-15.159H107.13v19.604H30.938z"/>
			<path d="M73.962,224.216h2.792c1.521,0,3.152-0.067,4.902-0.201c1.747-0.132,3.361-0.454,4.844-0.966
				c1.481-0.515,2.716-1.284,3.704-2.31c0.989-1.026,1.481-2.431,1.481-4.218c-0.113-1.481-0.475-2.716-1.082-3.704
				c-0.607-0.986-1.443-1.766-2.507-2.337c-1.065-0.571-2.31-0.978-3.734-1.226c-1.423-0.245-3.028-0.37-4.813-0.37h-2.622
				c-5.016,0-8.729,1.121-11.142,3.362c-2.411,2.241-3.62,5.813-3.62,10.715H42.221c0-0.305,0.01-0.58,0.03-0.826
				c0.017-0.248,0.028-0.504,0.028-0.771c0-1.975-0.182-3.741-0.543-5.299c-0.362-1.558-0.979-2.868-1.853-3.932
				c-0.873-1.064-2.032-1.871-3.476-2.424c-1.443-0.548-3.266-0.825-5.469-0.825c-1.405,0-2.774,0.095-4.104,0.286
				c-1.33,0.189-2.509,0.561-3.534,1.111c-1.026,0.551-1.851,1.33-2.479,2.335c-0.626,1.006-0.94,2.31-0.94,3.904
				c0.114,1.482,0.512,2.717,1.197,3.704c0.683,0.988,1.614,1.776,2.792,2.364c1.178,0.59,2.584,1.007,4.216,1.256
				c1.635,0.245,3.458,0.37,5.472,0.37h3.874v19.888h-6.495c-4.408,0-8.369-0.617-11.883-1.852
				c-3.513-1.235-6.497-3.022-8.948-5.357c-2.449-2.337-4.33-5.213-5.641-8.633c-1.309-3.42-1.966-7.334-1.966-11.74
				c0-4.368,0.664-8.263,1.995-11.683c1.331-3.42,3.219-6.308,5.67-8.66c2.451-2.358,5.433-4.153,8.948-5.389
				c3.514-1.233,7.455-1.85,11.825-1.85c2.125,0,4.234,0.227,6.325,0.682c2.089,0.458,4.075,1.123,5.956,1.994
				c1.879,0.876,3.609,1.959,5.186,3.251c1.577,1.292,2.897,2.772,3.959,4.443c1.331-1.745,2.897-3.276,4.701-4.588
				c1.804-1.31,3.762-2.393,5.87-3.247c2.108-0.856,4.339-1.492,6.696-1.909s4.787-0.626,7.295-0.626
				c4.672,0,8.976,0.494,12.907,1.481c3.933,0.986,7.324,2.581,10.173,4.786c2.849,2.203,5.082,5.053,6.695,8.55
				c1.615,3.494,2.422,7.749,2.422,12.764c0,5.32-0.797,9.727-2.393,13.223c-1.596,3.494-3.799,6.297-6.611,8.404
				c-2.811,2.109-6.155,3.602-10.03,4.474c-3.875,0.875-8.091,1.349-12.651,1.424l-3.477,0.058V224.216z"/>
		</g>
	</g>
	<g opacity="0.4">
		<g>
			<path d="M380.991,183.982h17.457v35.394h12.517v-35.394h17.552v86.324h-17.552v-38.51h-12.517v38.51h-17.457V183.982z"/>
			<path d="M433.1,212.901c0-20.397,8.409-30.598,25.226-30.598c16.85,0,25.274,10.2,25.274,30.598v28.583
				c0,4.156-0.424,8.081-1.271,11.773c-0.847,3.693-2.254,6.93-4.22,9.712c-1.967,2.781-4.564,4.979-7.793,6.594
				c-3.229,1.615-7.226,2.422-11.99,2.422c-4.763,0-8.751-0.783-11.965-2.35c-3.213-1.566-5.803-3.709-7.77-6.427
				c-1.966-2.718-3.373-5.898-4.22-9.543c-0.847-3.646-1.271-7.562-1.271-11.75V212.901z M466.143,208.538
				c0-8.506-2.605-12.757-7.817-12.757c-1.599,0-2.9,0.391-3.909,1.175c-1.006,0.783-1.798,1.782-2.374,2.997
				c-0.575,1.215-0.967,2.581-1.175,4.1c-0.208,1.52-0.312,3.015-0.312,4.485v37.312c0,8.472,2.589,12.708,7.769,12.708
				c5.212,0,7.817-4.236,7.817-12.708V208.538z"/>
			<path d="M497.616,197.027h-12.66v-13.045h42.539v13.045h-12.422v73.279h-17.457V197.027z"/>
			<path d="M530.348,183.982h36.017v11.99h-18.561v23.499h13.141v12.278h-13.141v26.566h18.561v11.99h-36.017V183.982z"/>
			<path d="M569.495,183.982h17.456v74.334h17.169v11.99h-34.625V183.982z"/>
		</g>
		<g>
			<path d="M618.777,183.982h17.456v35.394h12.517v-35.394h17.554v86.324H648.75v-38.51h-12.517v38.51h-17.456V183.982z"/>
			<path d="M671.656,183.982h36.016v11.99h-18.56v23.499h13.142v12.278h-13.142v26.566h18.56v11.99h-36.016V183.982z"/>
			<path d="M710.803,183.982h17.457v74.334h17.169v11.99h-34.626V183.982z"/>
			<path d="M748.395,183.982h17.455v86.324h-17.455V183.982z"/>
			<path d="M771.152,183.982h17.457v32.757l13.523-32.757h19.52l-17.602,35.345l18.896,50.979h-18.128l-13.044-39.469l-3.165,8.152
				v31.316h-17.457V183.982z"/>
			<path d="M821.417,212.901c0-20.397,8.409-30.598,25.228-30.598c16.848,0,25.272,10.2,25.272,30.598v28.583
				c0,4.156-0.424,8.081-1.271,11.773c-0.847,3.693-2.254,6.93-4.221,9.712c-1.967,2.781-4.564,4.979-7.793,6.594
				c-3.229,1.615-7.226,2.422-11.988,2.422c-4.765,0-8.753-0.783-11.967-2.35c-3.212-1.566-5.803-3.709-7.77-6.427
				c-1.966-2.718-3.373-5.898-4.219-9.543c-0.849-3.646-1.272-7.562-1.272-11.75V212.901z M854.461,208.538
				c0-8.506-2.605-12.757-7.816-12.757c-1.6,0-2.902,0.391-3.909,1.175c-1.008,0.783-1.8,1.782-2.374,2.997
				c-0.575,1.215-0.968,2.581-1.175,4.1c-0.208,1.52-0.312,3.015-0.312,4.485v37.312c0,8.472,2.589,12.708,7.77,12.708
				c5.211,0,7.816-4.236,7.816-12.708V208.538z"/>
			<path d="M876.508,183.982h12.565l18.943,45.129v-45.129H922.5v86.324h-12.086l-18.896-47.909v47.909h-15.011V183.982z"/>
		</g>
	</g>
	<g opacity="0.4">
		<path d="M380.991,278.589h23.832v44.72l18.464-44.72h26.647l-24.028,48.255l25.796,69.598h-24.75l-17.807-53.885l-4.322,11.131
			v42.754h-23.832V278.589z"/>
		<path d="M455.089,278.589h49.169v16.37h-25.337v32.081h17.939v16.76h-17.939v36.272h25.337v16.369h-49.169V278.589z"/>
		<path d="M530.466,358.074c0,2.794,0.087,5.511,0.262,8.15c0.174,2.642,0.579,5.009,1.212,7.104c0.632,2.095,1.55,3.798,2.75,5.108
			c1.2,1.31,2.825,2.029,4.878,2.158c4.714,0,7.07-3.01,7.07-9.033c0-8.207-4.647-16.411-13.946-24.617l-7.397-6.285
			c-2.096-1.747-4.257-3.612-6.482-5.598c-2.227-1.986-4.255-4.278-6.09-6.875c-1.833-2.598-3.35-5.599-4.549-9.004
			c-1.202-3.405-1.802-7.397-1.802-11.981c0-4.757,0.809-9.057,2.423-12.899c1.615-3.839,3.874-7.103,6.777-9.788
			c2.903-2.683,6.394-4.746,10.475-6.186c4.082-1.441,8.61-2.161,13.586-2.161c4.147,0,8.042,0.808,11.687,2.422
			c3.646,1.615,6.832,3.798,9.561,6.549c2.728,2.748,4.878,5.968,6.447,9.656c1.571,3.688,2.359,7.606,2.359,11.754l-0.068,2.814
			L545,312.768c0-0.263,0.011-0.589,0.033-0.982s0.043-0.819,0.067-1.277c0.021-0.458,0.042-0.906,0.065-1.343
			c0.021-0.438,0.031-0.828,0.031-1.178c0-1.439-0.11-2.958-0.327-4.551c-0.218-1.593-0.6-3.056-1.146-4.386
			c-0.546-1.332-1.309-2.434-2.291-3.307c-0.983-0.874-2.236-1.31-3.765-1.31c-1.31,0-2.455,0.282-3.438,0.851
			c-0.982,0.567-1.801,1.332-2.454,2.291c-0.656,0.961-1.146,2.063-1.474,3.307c-0.329,1.245-0.491,2.543-0.491,3.896
			c0,1.965,0.217,3.765,0.654,5.401c0.436,1.637,1.092,3.198,1.964,4.682c0.873,1.484,1.933,2.904,3.175,4.256
			c1.245,1.354,2.674,2.707,4.29,4.06l8.708,7.465c3.141,2.75,6.012,5.564,8.608,8.445c2.598,2.88,4.834,5.937,6.711,9.165
			c1.877,3.23,3.328,6.69,4.354,10.378c1.026,3.689,1.54,7.716,1.54,12.08c0,4.103-0.799,7.88-2.391,11.328
			c-1.594,3.446-3.754,6.416-6.482,8.904c-2.729,2.485-5.938,4.43-9.625,5.826c-3.688,1.396-7.628,2.096-11.818,2.096
			c-5.541,0-10.343-0.984-14.402-2.947c-4.061-1.964-7.455-4.615-10.182-7.954c-2.728-3.34-4.79-7.181-6.188-11.523
			c-1.396-4.344-2.203-8.915-2.421-13.718L530.466,358.074z"/>
		<path d="M573.104,381.514l31.1-86.49h-27.499v-16.369h50.807v14.994l-31.229,86.424h31.229v16.369h-54.407V381.514z"/>
		<path d="M648.076,296.397h-17.285v-17.809h58.076v17.809h-16.958v100.044h-23.833V296.397z"/>
		<path d="M692.761,278.589h23.833v48.32h17.089v-48.32h23.964v117.853h-23.964v-52.575h-17.089v52.575h-23.833V278.589z"/>
		<path d="M764.953,278.589h49.171v16.37h-25.338v32.081h17.938v16.76h-17.938v36.272h25.338v16.369h-49.171V278.589z"/>
		<path d="M818.397,278.589h23.832v101.483h23.44v16.369h-47.272V278.589z"/>
		<path d="M876.645,357.485l-22.131-78.896h22.457l11,51.789l12.111-51.789h21.804l-22.195,78.896v38.956h-23.046V357.485z"/>
	</g>
</g>
</svg>
