<?xml version="1.0" encoding="utf-8"?>
<!-- Generator: Adobe Illustrator 16.0.0, SVG Export Plug-In . SVG Version: 6.00 Build 0)  -->
<!DOCTYPE svg PUBLIC "-//W3C//DTD SVG 1.1//EN" "http://www.w3.org/Graphics/SVG/1.1/DTD/svg11.dtd">
<svg version="1.1" id="Layer_1" xmlns="http://www.w3.org/2000/svg" xmlns:xlink="http://www.w3.org/1999/xlink" x="0px" y="0px"
	 width="80px" height="35px" viewBox="0 0 80 35" enable-background="new 0 0 80 35" xml:space="preserve">
<path opacity="0.5" fill="#FFFFFF" d="M6.137,21.562c0.894,0,1.74,0.196,2.506,0.539c-0.034-0.375-0.054-0.758-0.054-1.153
	c0-7.455,6.045-13.499,13.5-13.499c3.28,0,6.284,1.17,8.624,3.114c-0.016-0.219-0.034-0.437-0.034-0.66
	c0-5.083,4.121-9.205,9.205-9.205c3.555,0,6.633,2.019,8.165,4.97c2.26-1.945,5.189-3.129,8.4-3.129
	c7.117,0,12.887,5.769,12.887,12.886c0,0.451-0.023,0.897-0.068,1.336c0.424-0.064,0.854-0.108,1.297-0.108
	c4.744,0,8.59,3.847,8.59,8.59c0,4.745-3.846,8.591-8.59,8.591H6.137C2.747,33.835,0,31.088,0,27.699
	C0,24.31,2.747,21.562,6.137,21.562z"/>
</svg>
