<?xml version="1.0" encoding="utf-8"?>
<!-- Generator: Adobe Illustrator 16.0.0, SVG Export Plug-In . SVG Version: 6.00 Build 0)  -->
<!DOCTYPE svg PUBLIC "-//W3C//DTD SVG 1.1//EN" "http://www.w3.org/Graphics/SVG/1.1/DTD/svg11.dtd">
<svg version="1.1" id="Layer_1" xmlns="http://www.w3.org/2000/svg" xmlns:xlink="http://www.w3.org/1999/xlink" x="0px" y="0px"
	 width="80px" height="35px" viewBox="0 0 80 35" enable-background="new 0 0 80 35" xml:space="preserve">
<path opacity="0.5" fill="#FFFFFF" d="M73.792,21.77c-0.904,0-1.761,0.198-2.536,0.546c0.034-0.38,0.055-0.768,0.055-1.167
	c0-7.542-6.115-13.656-13.658-13.656c-3.317,0-6.356,1.184-8.724,3.15c0.016-0.221,0.033-0.442,0.033-0.667
	c0-5.142-4.169-9.312-9.312-9.312c-3.596,0-6.711,2.042-8.261,5.027c-2.284-1.967-5.249-3.165-8.499-3.165
	c-7.199,0-13.036,5.836-13.036,13.036c0,0.456,0.023,0.907,0.07,1.351c-0.43-0.065-0.864-0.109-1.312-0.109
	c-4.801,0-8.691,3.891-8.691,8.69s3.891,8.691,8.691,8.691h65.179c3.429,0,6.208-2.78,6.208-6.208
	C80,24.549,77.221,21.77,73.792,21.77z"/>
</svg>
