<?xml version="1.0" encoding="utf-8"?>
<!-- Generator: Adobe Illustrator 16.0.0, SVG Export Plug-In . SVG Version: 6.00 Build 0)  -->
<!DOCTYPE svg PUBLIC "-//W3C//DTD SVG 1.1//EN" "http://www.w3.org/Graphics/SVG/1.1/DTD/svg11.dtd">
<svg version="1.1" id="Layer_1" xmlns="http://www.w3.org/2000/svg" xmlns:xlink="http://www.w3.org/1999/xlink" x="0px" y="0px"
	 width="71px" height="60px" viewBox="0 0 71 60" enable-background="new 0 0 71 60" xml:space="preserve">
<path fill="#092738" d="M63.778,15.292c0,0.615,0,1.23,0,1.846c0,19.206-14.599,41.18-41.183,41.18
	c-8.297,0-15.828-2.306-22.28-6.453c1.075,0.153,2.304,0.153,3.533,0.153c6.762,0,13.062-2.306,17.979-6.147
	c-6.3-0.154-11.678-4.302-13.522-10.142c0.768,0.308,1.689,0.308,2.613,0.308c1.383,0,2.611-0.156,3.841-0.461
	c-6.607-1.382-11.525-7.221-11.525-14.29v-0.156c1.843,1.077,4.149,1.692,6.455,1.846c-3.842-2.613-6.455-7.069-6.455-12.142
	c0-2.611,0.768-5.069,1.998-7.221c7.222,8.759,17.825,14.597,29.964,15.059c-0.307-0.922-0.46-2.15-0.46-3.227
	C34.736,7.456,41.189,1,49.333,1c4.149,0,7.838,1.691,10.45,4.457c3.38-0.613,6.454-1.843,9.219-3.38
	c-1.075,3.381-3.381,6.148-6.301,7.991c2.92-0.461,5.687-1.23,8.299-2.304C69.002,10.682,66.544,13.142,63.778,15.292z"/>
</svg>
